<?xml version="1.0" encoding="UTF-8" standalone="no"?>
<!-- Created with Inkscape (http://www.inkscape.org/) -->

<svg
   width="210mm"
   height="297mm"
   viewBox="0 0 210 297"
   version="1.1"
   id="svg5"
   xml:space="preserve"
   inkscape:version="1.2.1 (9c6d41e410, 2022-07-14, custom)"
   sodipodi:docname="dibujo.svg"
   xmlns:inkscape="http://www.inkscape.org/namespaces/inkscape"
   xmlns:sodipodi="http://sodipodi.sourceforge.net/DTD/sodipodi-0.dtd"
   xmlns="http://www.w3.org/2000/svg"
   xmlns:svg="http://www.w3.org/2000/svg"><sodipodi:namedview
     id="namedview7"
     pagecolor="#ffffff"
     bordercolor="#666666"
     borderopacity="1.0"
     inkscape:showpageshadow="2"
     inkscape:pageopacity="0.0"
     inkscape:pagecheckerboard="0"
     inkscape:deskcolor="#d1d1d1"
     inkscape:document-units="mm"
     showgrid="false"
     inkscape:zoom="0.5007929"
     inkscape:cx="-76.878086"
     inkscape:cy="217.65484"
     inkscape:window-width="1294"
     inkscape:window-height="715"
     inkscape:window-x="616"
     inkscape:window-y="111"
     inkscape:window-maximized="0"
     inkscape:current-layer="layer1" /><defs
     id="defs2" /><g
     inkscape:label="Capa 1"
     inkscape:groupmode="layer"
     id="layer1"><g
       id="g1400"
       transform="translate(-6.4181859,-3.4973535)"
       inkscape:export-filename="phone.png"
       inkscape:export-xdpi="149.981"
       inkscape:export-ydpi="149.981"><circle
         style="fill:#ffffff;fill-opacity:1;stroke:none;stroke-width:0.264999"
         id="path327"
         cx="-13.742584"
         cy="22.444832"
         r="13.209774" /><path
         style="fill:#000000;fill-opacity:1;stroke:#000000;stroke-width:0.264583px;stroke-linecap:butt;stroke-linejoin:miter;stroke-opacity:1"
         d="m -19.14032,14.722654 c 0,0 -1.183578,1.254401 -1.580576,2.008064 -0.244592,0.464336 -0.458887,0.978107 -0.469512,1.502817 -0.02527,1.24778 0.04979,1.899129 0.804659,3.217852 0.754873,1.318723 1.813758,2.355587 3.038165,3.439433 1.224407,1.083846 3.321559,3.130304 4.613993,3.589892 1.292434,0.459588 2.300031,0.387745 3.523678,0.160314 0.946991,-0.176012 2.114576,-1.685206 2.114576,-1.685206 l -3.077914,-2.981615 c 0,0 -0.652856,0.750766 -1.088639,1.016371 -0.381385,0.23245 -0.741227,0.483866 -1.245873,0.201556 -1.636197,-0.915323 -3.180183,-2.25464 -4.473379,-3.856935 -0.247983,-0.307256 -0.412895,-1.142114 -0.223702,-1.48868 0.351465,-0.643817 1.56507,-1.837226 1.56507,-1.837226 z"
         id="path1294"
         sodipodi:nodetypes="csszzzsccsssscc" /></g><g
       id="g14286"
       inkscape:export-filename="mail.png"
       inkscape:export-xdpi="149.981"
       inkscape:export-ydpi="149.981"><circle
         style="fill:#ffffff;fill-opacity:1;stroke:none;stroke-width:0.264999"
         id="path327-6"
         cx="-19.282513"
         cy="51.556801"
         r="13.209774" /><path
         style="fill:#000000;fill-opacity:0.996887;stroke:#000000;stroke-width:0.264583px;stroke-linecap:butt;stroke-linejoin:miter;stroke-opacity:1"
         d="m -26.06523,57.7587 4.080489,-4.322093 -4.005935,-4.502692 z"
         id="path2164"
         sodipodi:nodetypes="cccc" /><path
         style="fill:#000000;fill-opacity:0.996887;stroke:#000000;stroke-width:0.264583px;stroke-linecap:butt;stroke-linejoin:miter;stroke-opacity:1"
         d="m -12.030162,57.599879 -4.080489,-4.322093 4.005935,-4.502692 z"
         id="path2164-5"
         sodipodi:nodetypes="cccc" /><path
         style="fill:#000000;fill-opacity:0.996887;stroke:#000000;stroke-width:0.264583px;stroke-linecap:butt;stroke-linejoin:miter;stroke-opacity:1"
         d="m -24.943575,58.149249 12.185853,-0.0013 -4.046099,-4.38346 h -4.129841 z"
         id="path2166"
         sodipodi:nodetypes="ccccc" /><path
         style="fill:#000000;fill-opacity:0.996887;stroke:#000000;stroke-width:0.264583px;stroke-linecap:butt;stroke-linejoin:miter;stroke-opacity:1"
         d="m -25.517984,48.076121 6.453513,-4.837006 6.341963,4.869805 -4.360544,4.693711 h -4.129841 z"
         id="path2166-3"
         sodipodi:nodetypes="cccccc" /></g><g
       id="g11960"
       transform="translate(-48.233929,-7.714241)"
       inkscape:export-filename="website.png"
       inkscape:export-xdpi="149.981"
       inkscape:export-ydpi="149.981"><circle
         style="opacity:1;fill:#ffffff;fill-opacity:1;stroke:none;stroke-width:0.264999"
         id="path327-6-6"
         cx="25.134506"
         cy="108.55121"
         r="13.209774" /><path
         id="path5258"
         style="opacity:1;fill:#000000;fill-opacity:1;stroke:none;stroke-width:0.310428"
         d="m 25.811861,99.452844 v 4.247286 h 3.358968 c -0.173932,-1.11891 -0.404285,-2.32601 -0.696081,-3.64112 a 9.1262608,9.1262608 0 0 0 -2.662887,-0.606166 z m -1.531173,0.01809 a 9.1262608,9.1262608 0 0 0 -2.33319,0.533819 c -0.297481,1.33619 -0.531194,2.56114 -0.707451,3.69538 h 3.040641 z m -3.211173,0.915189 a 9.1262608,9.1262608 0 0 0 -3.661275,3.31401 h 2.970878 c 0.173947,-1.14304 0.405492,-2.2557 0.690397,-3.31401 z m 8.293034,0.0816 c 0.275027,1.03388 0.499639,2.1186 0.66921,3.23236 h 2.832902 a 9.1262608,9.1262608 0 0 0 -3.502112,-3.23236 z m -12.385291,3.9982 a 9.1262608,9.1262608 0 0 0 -0.968933,4.08503 9.1262608,9.1262608 0 0 0 0.001,0.0258 h 3.990971 c 0.0054,-1.3772 0.0977,-2.7606 0.270784,-4.11087 z m 4.150651,0 c -0.207607,1.51168 -0.308767,2.86273 -0.319877,4.11087 h 3.472656 v -4.11087 z m 4.683952,0 v 4.11087 h 3.7915 c -0.01123,-1.24799 -0.112737,-2.5994 -0.320394,-4.11087 z m 4.327901,0 c 0.173187,1.35027 0.265256,2.73362 0.270785,4.11087 h 3.849377 a 9.1262608,9.1262608 0 0 0 0.001,-0.0258 9.1262608,9.1262608 0 0 0 -0.965833,-4.08503 z m -14.092679,4.87619 a 9.1262608,9.1262608 0 0 0 0.530716,2.358 h 3.566191 c -0.07633,-0.77646 -0.121209,-1.56469 -0.136942,-2.358 z m 4.764567,0 c 0.01729,0.82125 0.07525,1.60114 0.166914,2.358 h 3.302124 v -2.358 z m 5.000211,0 v 2.358 h 3.620968 c 0.09158,-0.75684 0.149192,-1.53674 0.166398,-2.358 z m 4.592485,0 c -0.01568,0.79313 -0.0607,1.5817 -0.136943,2.358 h 3.424081 a 9.1262608,9.1262608 0 0 0 0.530717,-2.358 z m -13.50822,3.12333 a 9.1262608,9.1262608 0 0 0 4.282426,4.30413 c -0.44544,-1.33839 -0.758354,-2.79255 -0.949296,-4.30413 z m 4.186825,0 c 0.245044,1.59066 0.639721,3.10606 1.13223,4.72736 a 9.1262608,9.1262608 0 0 0 2.065507,0.43821 v -5.16557 z m 4.72891,0 v 5.18366 a 9.1262608,9.1262608 0 0 0 2.402438,-0.51418 c 0.48429,-1.59955 0.87216,-3.09755 1.114143,-4.66948 z m 4.370276,0 c -0.186677,1.47878 -0.489837,2.90301 -0.91984,4.21731 a 9.1262608,9.1262608 0 0 0 4.11086,-4.21731 z" /></g><g
       id="g14274"
       transform="translate(-47.817112,-13.85258)"
       inkscape:export-filename="location.png"
       inkscape:export-xdpi="149.981"
       inkscape:export-ydpi="149.981"><circle
         style="opacity:1;fill:#ffffff;fill-opacity:1;stroke:none;stroke-width:0.264999"
         id="path327-6-6-6"
         cx="25.018744"
         cy="149.55214"
         r="13.209774" /><path
         style="opacity:1;fill:#000000;fill-opacity:1;stroke:none;stroke-width:0.264583px;stroke-linecap:butt;stroke-linejoin:miter;stroke-opacity:1"
         d="m 25.173566,158.13425 c 0,0 -4.722978,-8.21709 -5.308433,-9.86825 -0.484936,-1.36766 -0.435707,-3.38075 0.08543,-4.352 0.656185,-1.22294 1.768517,-3.08738 5.207364,-3.08738 3.438847,0 4.604825,1.96562 5.112726,3.08738 0.493772,1.09054 0.487705,3.28249 -0.05012,4.352 -0.919098,1.82772 -5.04697,9.86825 -5.04697,9.86825 z"
         id="path14174"
         sodipodi:nodetypes="csszsscc" /><circle
         style="opacity:1;fill:#ffffff;fill-opacity:1;stroke:none;stroke-width:0.264999"
         id="path14228"
         cx="25.083591"
         cy="146.06808"
         r="2.8246999" /></g></g></svg>
